<svg class="ldi-hzu9tj" width="200px"  height="200px"  xmlns="http://www.w3.org/2000/svg" xmlns:xlink="http://www.w3.org/1999/xlink" viewBox="0 0 100 100" preserveAspectRatio="xMidYMid" style="background: none;"><!--?xml version="1.0" encoding="utf-8"?--><!--Generator: Adobe Illustrator 21.0.0, SVG Export Plug-In . SVG Version: 6.00 Build 0)--><svg version="1.1" id="圖層_1" xmlns="http://www.w3.org/2000/svg" xmlns:xlink="http://www.w3.org/1999/xlink" x="0px" y="0px" viewBox="0 0 100 100" style="transform-origin: 50px 50px 0px;" xml:space="preserve"><g style="transform-origin: 50px 50px 0px;"><g fill="rgb(0, 0, 0)" style="fill: rgb(0, 0, 0); transform-origin: 50px 50px 0px; transform: scale(0.6);"><g style="transform-origin: 50px 50px 0px;"><g fill="rgb(0, 0, 0)" style="fill: rgb(0, 0, 0);"><linearGradient id="SVGID_1_" gradientUnits="userSpaceOnUse" x1="50" y1="22.6242" x2="50" y2="79.3438" class="ld ld-breath" style="transform-origin: 50px 50px 0px; animation-duration: 1.7s; animation-delay: -1.7s; animation-direction: normal;"><stop offset="0" style="stop-color: rgb(245, 230, 200); transform-origin: 50px 50px 0px; animation-duration: 1.7s; animation-delay: -1.632s; animation-direction: normal;" stop-color="rgb(245, 230, 200)" class="ld ld-breath"></stop><stop offset="0.5087" style="stop-color: rgb(248, 199, 136); transform-origin: 50px 50px 0px; animation-duration: 1.7s; animation-delay: -1.564s; animation-direction: normal;" stop-color="rgb(248, 199, 136)" class="ld ld-breath"></stop><stop offset="1" style="stop-color: rgb(245, 230, 200); transform-origin: 50px 50px 0px; animation-duration: 1.7s; animation-delay: -1.496s; animation-direction: normal;" stop-color="rgb(245, 230, 200)" class="ld ld-breath"></stop></linearGradient><g class="ld ld-breath" style="transform-origin: 50px 50px 0px; animation-duration: 1.7s; animation-delay: -1.428s; animation-direction: normal;"><circle style="fill:url(#SVGID_1_);stroke:#f8b26a;stroke-width:3;stroke-miterlimit:10" cx="50" cy="50" r="40" stroke="rgb(248, 178, 106)"></circle></g><g style="transform-origin: 50px 50px 0px;"><g fill="rgb(0, 0, 0)" style="fill: rgb(0, 0, 0);"><g class="ld ld-breath" style="transform-origin: 50px 50px 0px; animation-duration: 1.7s; animation-delay: -1.36s; animation-direction: normal;"><path style="fill:none;stroke:#000;stroke-width:4.357;stroke-linecap:round;stroke-linejoin:round;stroke-miterlimit:10" d=" M66.501,29.096c0,0-7.629,7.534-9.821,11.188c2.432,2.435,8.738,7.982,10.969,10.565" stroke="rgb(0, 0, 0)"></path></g><g class="ld ld-breath" style="transform-origin: 50px 50px 0px; animation-duration: 1.7s; animation-delay: -1.292s; animation-direction: normal;"><path style="fill:none;stroke:#000;stroke-width:4.357;stroke-linecap:round;stroke-linejoin:round;stroke-miterlimit:10" d=" M57.863,40.106c3.232-0.33,12.399-0.031,15.631-0.361" stroke="rgb(0, 0, 0)"></path></g></g></g><g style="transform-origin: 50px 50px 0px;"><g fill="rgb(0, 0, 0)" style="fill: rgb(0, 0, 0);"><g class="ld ld-breath" style="transform-origin: 50px 50px 0px; animation-duration: 1.7s; animation-delay: -1.224s; animation-direction: normal;"><path style="fill:none;stroke:#000;stroke-width:4.357;stroke-linecap:round;stroke-linejoin:round;stroke-miterlimit:10" d=" M33.499,29.096c0,0,7.629,7.534,9.821,11.188c-2.432,2.435-8.738,7.982-10.969,10.565" stroke="rgb(0, 0, 0)"></path></g><g class="ld ld-breath" style="transform-origin: 50px 50px 0px; animation-duration: 1.7s; animation-delay: -1.156s; animation-direction: normal;"><path style="fill:none;stroke:#000;stroke-width:4.357;stroke-linecap:round;stroke-linejoin:round;stroke-miterlimit:10" d=" M42.137,40.106c-3.232-0.33-12.399-0.031-15.631-0.361" stroke="rgb(0, 0, 0)"></path></g></g></g><g class="ld ld-breath" style="transform-origin: 50px 50px 0px; animation-duration: 1.7s; animation-delay: -1.088s; animation-direction: normal;"><path style="fill:none;stroke:#000;stroke-width:4;stroke-linecap:round;stroke-linejoin:round;stroke-miterlimit:10" d=" M30.22,69.72c0.571-1.871,1.735-3.556,3.282-4.753c0.48-0.371,1.098-0.711,1.667-0.5c0.267,0.099,0.478,0.306,0.667,0.519 c0.931,1.05,1.526,2.362,2.454,3.414c0.928,1.052,2.402,1.842,3.717,1.352c0.823-0.307,1.397-1.041,1.953-1.722 c1.214-1.486,2.586-2.898,4.295-3.771c0.711-0.363,1.525-0.632,2.301-0.444c2.563,0.62,2.38,5.218,4.962,5.749 c1.485,0.305,2.769-1.031,3.596-2.302c0.827-1.271,1.735-2.756,3.233-2.99c1.882-0.295,3.337,1.532,4.424,3.097 c0.758,1.091,1.824,2.247,3.008,2.63" stroke="rgb(0, 0, 0)"></path></g><g class="ld ld-breath" style="transform-origin: 50px 50px 0px; animation-duration: 1.7s; animation-delay: -1.02s; animation-direction: normal;"><path style="fill: rgb(160, 200, 215);" d="M91.919,50.769c5.13,5.13,4.59,10.521,0.933,14.178c-3.658,3.658-9.191,4.055-14.178-0.933 c-5.261-5.261-6.099-13.46-6.185-17.293c-0.027-1.196,0.941-2.165,2.138-2.138C78.459,44.67,86.658,45.508,91.919,50.769z" fill="rgb(160, 200, 215)"></path></g><g class="ld ld-breath" style="transform-origin: 50px 50px 0px; animation-duration: 1.7s; animation-delay: -0.952s; animation-direction: normal;"><path style="fill: rgb(160, 200, 215);" d="M83.982,18.476c5.558-1.892,9.279,0.426,10.627,4.388s-0.34,8.122-5.743,9.961 c-5.7,1.94-11.952-0.38-14.766-1.687c-0.878-0.408-1.235-1.457-0.788-2.316C74.744,26.07,78.282,20.416,83.982,18.476z" fill="rgb(160, 200, 215)"></path></g><g class="ld ld-breath" style="transform-origin: 50px 50px 0px; animation-duration: 1.7s; animation-delay: -0.884s; animation-direction: normal;"><path style="fill: rgb(160, 200, 215);" d="M9.836,50.769c-5.13,5.13-4.59,10.521-0.933,14.178c3.658,3.658,9.191,4.055,14.178-0.933 c5.261-5.261,6.099-13.46,6.185-17.293c0.027-1.196-0.941-2.165-2.138-2.138C23.296,44.67,15.097,45.508,9.836,50.769z" fill="rgb(160, 200, 215)"></path></g><g class="ld ld-breath" style="transform-origin: 50px 50px 0px; animation-duration: 1.7s; animation-delay: -0.816s; animation-direction: normal;"><path style="fill: rgb(160, 200, 215);" d="M25.703,12.894c-3.858-3.915-7.945-3.536-10.736-0.785s-3.122,6.94,0.628,10.746 c3.957,4.015,10.163,4.695,13.067,4.782c0.906,0.027,1.645-0.701,1.631-1.608C30.249,23.125,29.659,16.909,25.703,12.894z" fill="rgb(160, 200, 215)"></path></g><metadata xmlns:d="https://loading.io/stock/" class="ld ld-breath" style="transform-origin: 50px 50px 0px; animation-duration: 1.7s; animation-delay: -0.748s; animation-direction: normal;">
<d:name class="ld ld-breath" style="transform-origin: 50px 50px 0px; animation-duration: 1.7s; animation-delay: -0.68s; animation-direction: normal;">sad</d:name>
<d:tags class="ld ld-breath" style="transform-origin: 50px 50px 0px; animation-duration: 1.7s; animation-delay: -0.612s; animation-direction: normal;">sad,grief,sorrow,sorry,upset,unhappy,regretful,depressed,down,miserable,tear,cry</d:tags>
<d:license class="ld ld-breath" style="transform-origin: 50px 50px 0px; animation-duration: 1.7s; animation-delay: -0.544s; animation-direction: normal;">cc-by</d:license>
<d:slug class="ld ld-breath" style="transform-origin: 50px 50px 0px; animation-duration: 1.7s; animation-delay: -0.476s; animation-direction: normal;">hzu9tj</d:slug>
</metadata></g></g></g></g><style type="text/css" class="ld ld-breath" style="transform-origin: 50px 50px 0px; animation-duration: 1.7s; animation-delay: -0.408s; animation-direction: normal;">path,ellipse,circle,rect,polygon,polyline,line { stroke-width: 0; }@keyframes ld-breath {
  0% {
    -webkit-transform: scale(0.86);
    transform: scale(0.86);
  }
  50% {
    -webkit-transform: scale(1.06);
    transform: scale(1.06);
  }
  100% {
    -webkit-transform: scale(0.86);
    transform: scale(0.86);
  }
}
@-webkit-keyframes ld-breath {
  0% {
    -webkit-transform: scale(0.86);
    transform: scale(0.86);
  }
  50% {
    -webkit-transform: scale(1.06);
    transform: scale(1.06);
  }
  100% {
    -webkit-transform: scale(0.86);
    transform: scale(0.86);
  }
}
.ld.ld-breath {
  -webkit-animation: ld-breath 1s infinite;
  animation: ld-breath 1s infinite;
}
</style></svg></svg>